# xmcd
#
# Track frame offsets: 
#        150
#        14764
#        35210
#        48816
#        63421
#        81490
#        96995
#        113365
#        130749
#        147137
#        165083
#        187429
#
# Disc length: 2719 seconds
#
# Revision: 0
# Processed by: cddbd v1.5.2PL0 Copyright (c) Steve Scherf et al.
# Submitted via: ExactAudioCopy v0.99pb5
#
DISCID=a40a9d0c
DTITLE=The Twisters - Come Out Swingin'
DYEAR=2009
DGENRE=Blues
TTITLE0=I'll Make It Up To You
TTITLE1=Something's Gotta Give
TTITLE2=Long Overdue
TTITLE3=Doghouse
TTITLE4=Guess That I Was Wrong
TTITLE5=Matter Of Time
TTITLE6=Take My Own Advice
TTITLE7=Kiko
TTITLE8=I Refuse To Get Old
TTITLE9=Dirty Boy Blues
TTITLE10=Party Goin' On
TTITLE11=Twisters' Theme
EXTD=
EXTT0=
EXTT1=
EXTT2=
EXTT3=
EXTT4=
EXTT5=
EXTT6=
EXTT7=
EXTT8=
EXTT9=
EXTT10=
EXTT11=
PLAYORDER=
